# xmcd
#
# Track frame offsets:
#	182
#	17220
#	31245
#	52942
#	64162
#	97172
#	107677
#	121212
#	135742
#	154630
#
# Disc length: 2533 seconds
# Revision: 5
# Processed by: cddbd v1.5.2PL0 Copyright (c) Steve Scherf et al.
# Submitted via: dBpowerAMP V12.0
#
DISCID=7f09e30a
DTITLE=Various Artist - Pocket Jazz Blues and Boogie
DYEAR=1900
DGENRE=Blues
TTITLE0=Lionel Hampton - Beulah's Boogie
TTITLE1=Gene Krupa - Bop Boogie
TTITLE2=Red Allen with All-Starts - Wild Man Blues
TTITLE3=Memphis Slim - Sonophone Boogie
TTITLE4=Joe Turner and Pete Johnson - Roll' em Pete
TTITLE5=Sir Charles Thompson - Mister Boogie
TTITLE6=Benny Goodman - Saint Louis Blues
TTITLE7=Harry James - Woo-Woo
TTITLE8=Earl Hines - St. James Infirmery Blues
TTITLE9=The Cafe Society Band - Swingin' the Blues
EXTD=
EXTT0=
EXTT1=
EXTT2=
EXTT3=
EXTT4=
EXTT5=
EXTT6=
EXTT7=
EXTT8=
EXTT9=
PLAYORDER=
